<?xml version="1.0" encoding="UTF-8" standalone="no"?>
<!-- Created with Inkscape (http://www.inkscape.org/) -->
<svg
   xmlns:dc="http://purl.org/dc/elements/1.1/"
   xmlns:cc="http://web.resource.org/cc/"
   xmlns:rdf="http://www.w3.org/1999/02/22-rdf-syntax-ns#"
   xmlns:svg="http://www.w3.org/2000/svg"
   xmlns="http://www.w3.org/2000/svg"
   xmlns:xlink="http://www.w3.org/1999/xlink"
   xmlns:sodipodi="http://sodipodi.sourceforge.net/DTD/sodipodi-0.dtd"
   xmlns:inkscape="http://www.inkscape.org/namespaces/inkscape"
   id="svg2208"
   sodipodi:version="0.32"
   inkscape:version="0.45.1"
   width="2000"
   height="2000"
   version="1.0"
   sodipodi:docbase="/home/tim/oss/tp/media/promotion/gear/tshirtcity/tshirt1"
   sodipodi:docname="tp-clean-shirt-front-ts.svg"
   inkscape:output_extension="org.inkscape.output.svg.inkscape"
   inkscape:export-filename="/home/tim/oss/tp/media/promotion/gear/tshirtcity/tshirt1/tp-clean-shirt-back.png"
   inkscape:export-xdpi="300.01501"
   inkscape:export-ydpi="300.01501">
  <metadata
     id="metadata2213">
    <rdf:RDF>
      <cc:Work
         rdf:about="">
        <dc:format>image/svg+xml</dc:format>
        <dc:type
           rdf:resource="http://purl.org/dc/dcmitype/StillImage" />
      </cc:Work>
    </rdf:RDF>
  </metadata>
  <defs
     id="defs2211">
    <radialGradient
       gradientUnits="userSpaceOnUse"
       gradientTransform="matrix(1,0,0,0.435233,0,272.029)"
       r="354.81509"
       fy="481.66608"
       fx="509.24237"
       cy="481.66608"
       cx="509.24237"
       id="radialGradient4307"
       xlink:href="#linearGradient4301"
       inkscape:collect="always" />
    <radialGradient
       gradientUnits="userSpaceOnUse"
       gradientTransform="matrix(1,0,0,1.009785,0,-4.766929)"
       r="469.71634"
       fy="487.18134"
       fx="510.16159"
       cy="487.18134"
       cx="510.16159"
       id="radialGradient2112"
       xlink:href="#linearGradient2106"
       inkscape:collect="always" />
    <linearGradient
       id="linearGradient2106">
      <stop
         id="stop2108"
         offset="0.00000000"
         style="stop-color:#000404;stop-opacity:1.0000000;" />
      <stop
         style="stop-color:#000000;stop-opacity:1.0000000;"
         offset="0.95999998"
         id="stop2114" />
      <stop
         id="stop2116"
         offset="0.97000003"
         style="stop-color:#000404;stop-opacity:0.79503107;" />
      <stop
         id="stop2110"
         offset="1.0000000"
         style="stop-color:#000909;stop-opacity:0.00000000;" />
    </linearGradient>
    <linearGradient
       id="linearGradient4301"
       inkscape:collect="always">
      <stop
         id="stop4303"
         offset="0"
         style="stop-color:#ffffff;stop-opacity:1;" />
      <stop
         id="stop4305"
         offset="1"
         style="stop-color:#ffffff;stop-opacity:0;" />
    </linearGradient>
    <linearGradient
       id="linearGradient2538">
      <stop
         id="stop2540"
         offset="0.00000000"
         style="stop-color:#000404;stop-opacity:1.0000000;" />
      <stop
         style="stop-color:#000000;stop-opacity:1.0000000;"
         offset="0.95999998"
         id="stop2542" />
      <stop
         id="stop2544"
         offset="0.97000003"
         style="stop-color:#000404;stop-opacity:0.79503107;" />
      <stop
         id="stop2546"
         offset="1.0000000"
         style="stop-color:#000909;stop-opacity:0.00000000;" />
    </linearGradient>
  </defs>
  <sodipodi:namedview
     inkscape:window-height="735"
     inkscape:window-width="1366"
     inkscape:pageshadow="2"
     inkscape:pageopacity="0"
     guidetolerance="10.0"
     gridtolerance="10.0"
     objecttolerance="10.0"
     borderopacity="1.0"
     bordercolor="#666666"
     pagecolor="#000000"
     id="base"
     inkscape:zoom="0.25803955"
     inkscape:cx="1241.7361"
     inkscape:cy="1283.4955"
     inkscape:window-x="0"
     inkscape:window-y="0"
     inkscape:current-layer="layer7"
     showgrid="true"
     showguides="true"
     inkscape:guide-bbox="true"
     borderlayer="true" />
  <g
     inkscape:groupmode="layer"
     id="layer1"
     inkscape:label="background"
     style="display:none">
    <image
       xlink:href="10x10_apparel.jpg"
       sodipodi:absref="/home/tim/oss/tp/cafepress/10x10_apparel.jpg"
       width="2000"
       height="2000"
       id="image2215"
       x="0.34483823"
       y="0.42560908" />
  </g>
  <g
     inkscape:groupmode="layer"
     id="layer5"
     inkscape:label="black"
     style="display:none"
     sodipodi:insensitive="true">
    <rect
       style="opacity:1;fill:#000000;fill-opacity:1;stroke:none;stroke-width:80;stroke-miterlimit:4;stroke-dasharray:none;stroke-opacity:1"
       id="rect3715"
       width="2008.1538"
       height="2007.4442"
       x="0"
       y="-0.49438477" />
  </g>
  <g
     style="display:inline"
     inkscape:label="top"
     id="g4964"
     inkscape:groupmode="layer">
    <g
       transform="matrix(1.4001701,0,0,1.4001701,284.95516,41.141685)"
       sodipodi:insensitive="true"
       style="opacity:1;fill:#ffffff;fill-opacity:1;stroke:#ffffff;stroke-width:39.28094101;stroke-miterlimit:4;stroke-dasharray:none;stroke-opacity:1;display:inline"
       inkscape:label="Swirl"
       id="g4972" />
    <text
       xml:space="preserve"
       style="font-size:188px;font-style:normal;font-weight:normal;text-align:center;text-anchor:middle;fill:#ffffff;font-family:URW Gothic L"
       x="1018.0933"
       y="1736.89"
       id="text5240"><tspan
         sodipodi:role="line"
         id="tspan5242"
         x="1018.0933"
         y="1736.89"
         style="font-size:188px;font-style:normal;font-weight:normal;text-align:center;text-anchor:middle;fill:#ffffff;font-family:URW Gothic L">Thousand Parsec</tspan></text>
    <text
       xml:space="preserve"
       style="font-size:120px;fill:#ffffff;font-family:Bitstream Vera Sans"
       x="258.21744"
       y="1855.0391"
       id="text5244"><tspan
         sodipodi:role="line"
         id="tspan5246"
         x="258.21744"
         y="1855.0391">www.thousandparsec.net</tspan></text>
  </g>
  <g
     inkscape:groupmode="layer"
     id="layer7"
     inkscape:label="logo"
     style="display:inline">
    <path
       style="color:#000000;fill:#ffffff;fill-opacity:1;fill-rule:evenodd;stroke:none;stroke-width:36.85445023;stroke-linecap:butt;stroke-linejoin:miter;marker:none;stroke-miterlimit:4;stroke-dasharray:none;stroke-dashoffset:0;stroke-opacity:1;visibility:visible;display:inline;overflow:visible;opacity:1"
       d="M 1009.7188 68.28125 C 614.11532 68.281251 292.53125 389.89665 292.53125 785.5 C 292.53125 798.31753 292.86446 811.065 293.53125 823.71875 L 349.46875 847.96875 C 347.54827 827.40114 346.5625 806.57124 346.5625 785.5 C 346.5625 419.1394 643.3581 122.3125 1009.7188 122.3125 C 1376.0669 122.3125 1672.8871 419.08914 1672.9062 785.4375 L 1726.9375 785.4375 C 1726.9167 389.84763 1405.3085 68.28125 1009.7188 68.28125 z M 1672.9062 785.5 C 1672.9062 808.37058 1671.7268 830.97708 1669.4688 853.25 L 1725.625 828.90625 C 1726.4855 814.54574 1726.9375 800.07376 1726.9375 785.5 L 1672.9062 785.5 z M 295.15625 846.9375 C 298.74445 889.07125 305.98326 930.18224 316.5625 969.9375 L 337.78125 991.15625 C 340.73387 994.11116 341.6008 998.54798 340 1002.4062 C 338.39919 1006.2647 334.646 1008.7845 330.46875 1008.7812 L 328.09375 1008.7812 C 336.19146 1033.4566 345.5938 1057.5494 356.21875 1080.9688 L 390.34375 1083.75 C 392.98783 1083.9603 395.44961 1085.1802 397.21875 1087.1562 L 462.53125 1160.2812 C 427.02588 1108.5358 398.65523 1051.5053 378.875 990.59375 C 376.46055 989.24713 374.62878 986.95261 373.90625 984.15625 L 344.21875 868.15625 L 295.15625 846.9375 z M 1723.875 852.15625 L 1673.9688 873.78125 L 1644.2812 989.78125 C 1644.2123 990.048 1644.1199 990.30528 1644.0312 990.5625 C 1643.9541 990.78598 1643.8727 991.003 1643.7812 991.21875 C 1643.7684 991.24911 1643.7632 991.2823 1643.75 991.3125 C 1643.535 991.80633 1643.2849 992.30202 1643 992.75 C 1642.9599 992.81269 1642.9163 992.87578 1642.875 992.9375 C 1642.8306 993.00406 1642.7646 993.05958 1642.7188 993.125 C 1642.5473 993.36829 1642.3785 993.61703 1642.1875 993.84375 C 1642.1426 993.89707 1642.1084 993.94763 1642.0625 994 C 1641.8638 994.22654 1641.6235 994.44833 1641.4062 994.65625 C 1641.2942 994.76312 1641.1792 994.86703 1641.0625 994.96875 C 1641.0115 995.01328 1640.9581 995.05023 1640.9062 995.09375 C 1640.7877 995.1932 1640.6854 995.31218 1640.5625 995.40625 C 1640.4786 995.47039 1640.3984 995.53218 1640.3125 995.59375 C 1640.0916 995.75253 1639.8581 995.89008 1639.625 996.03125 C 1639.4072 996.16271 1639.1651 996.29089 1638.9375 996.40625 C 1638.8335 996.45895 1638.7308 996.51327 1638.625 996.5625 C 1581.9137 1165.6974 1458.9046 1304.3499 1300.4375 1381.7188 C 1300.46 1382.2591 1300.4774 1382.6289 1300.5 1383.1562 C 1300.6706 1387.1354 1300.8586 1390.9093 1301.0312 1394 C 1301.129 1395.7501 1301.217 1397.3186 1301.3125 1398.7188 C 1301.4056 1400.095 1301.5026 1401.3407 1301.5938 1402.3438 C 1301.8906 1405.6273 1300.6018 1408.8552 1298.125 1411.0312 C 1295.8882 1412.9996 1293.6557 1414.9257 1291.4375 1416.8125 C 1289.8152 1418.1923 1288.176 1419.5694 1286.5625 1420.9062 C 1285.9836 1421.3858 1285.3903 1421.8696 1284.8125 1422.3438 C 1282.8516 1423.9526 1280.8875 1425.5471 1278.9375 1427.0938 C 1278.7015 1427.2809 1278.4546 1427.47 1278.2188 1427.6562 C 1276.4633 1429.0427 1274.7169 1430.3817 1272.9688 1431.7188 C 1272.5401 1432.0466 1272.1157 1432.3938 1271.6875 1432.7188 C 1270.328 1433.7501 1268.9498 1434.7792 1267.5938 1435.7812 C 1266.7875 1436.377 1265.9614 1436.977 1265.1562 1437.5625 C 1263.4629 1438.7937 1261.7832 1440.0011 1260.0938 1441.1875 C 1259.6188 1441.5211 1259.1309 1441.8574 1258.6562 1442.1875 C 1257.8863 1442.7227 1257.1132 1443.2552 1256.3438 1443.7812 C 1255.3434 1444.4654 1254.3434 1445.1437 1253.3438 1445.8125 C 1253.0951 1445.9789 1252.8424 1446.1471 1252.5938 1446.3125 C 1252.4574 1446.4032 1252.3238 1446.5033 1252.1875 1446.5938 C 1251.0768 1447.3304 1249.9541 1448.0633 1248.8438 1448.7812 C 1247.8046 1449.4533 1246.7578 1450.1254 1245.7188 1450.7812 C 1244.2727 1451.6938 1242.8215 1452.587 1241.375 1453.4688 C 1240.661 1453.9041 1239.933 1454.3533 1239.2188 1454.7812 C 1237.4426 1455.845 1235.6537 1456.8876 1233.875 1457.9062 C 1233.4991 1458.1216 1233.1261 1458.3491 1232.75 1458.5625 C 1232.4171 1458.7513 1232.083 1458.9378 1231.75 1459.125 C 1229.9587 1460.1321 1228.1709 1461.0998 1226.375 1462.0625 C 1226.3341 1462.0844 1226.2909 1462.1031 1226.25 1462.125 C 1224.4569 1463.0852 1222.6429 1464.0206 1220.8438 1464.9375 C 1220.4677 1465.1292 1220.0951 1465.3414 1219.7188 1465.5312 C 1219.336 1465.7242 1218.9456 1465.9027 1218.5625 1466.0938 C 1216.7653 1466.9902 1214.9615 1467.864 1213.1562 1468.7188 C 1211.2462 1469.6232 1209.3269 1470.5161 1207.4062 1471.375 C 1207.126 1471.5004 1206.843 1471.6256 1206.5625 1471.75 C 1206.5198 1471.7689 1206.4802 1471.7936 1206.4375 1471.8125 C 1204.6166 1472.6187 1202.8008 1473.3898 1200.9688 1474.1562 C 1200.624 1474.3005 1200.2827 1474.4509 1199.9375 1474.5938 C 1198.5925 1475.1503 1197.2268 1475.683 1195.875 1476.2188 C 1194.6573 1476.7014 1193.4425 1477.1902 1192.2188 1477.6562 C 1192.1447 1477.6844 1192.0741 1477.7219 1192 1477.75 C 1191.1891 1478.0581 1190.3762 1478.3554 1189.5625 1478.6562 C 1189.074 1478.8369 1188.5833 1479.0095 1188.0938 1479.1875 C 1187.5605 1479.3815 1187.0346 1479.5903 1186.5 1479.7812 C 1184.4203 1480.5241 1182.3188 1481.2397 1180.2188 1481.9375 C 1180.0315 1481.9997 1179.8437 1482.0631 1179.6562 1482.125 C 1179.2303 1482.2656 1178.8019 1482.3924 1178.375 1482.5312 C 1177.6657 1482.7619 1176.9619 1482.993 1176.25 1483.2188 C 1273.5442 1460.0196 1363.182 1416.9271 1440.6562 1358.5312 L 1417.3125 1357.375 C 1415.0556 1357.2653 1412.9616 1356.439 1411.2812 1355.0625 C 1411.0887 1354.9052 1410.8997 1354.7336 1410.7188 1354.5625 C 1410.1973 1354.0704 1409.7251 1353.5344 1409.3125 1352.9375 C 1409.3076 1352.9304 1409.3174 1352.9133 1409.3125 1352.9062 C 1409.1787 1352.7117 1409.0271 1352.5171 1408.9062 1352.3125 C 1408.9016 1352.3046 1408.9109 1352.2892 1408.9062 1352.2812 C 1408.7862 1352.0767 1408.669 1351.8703 1408.5625 1351.6562 C 1408.5584 1351.6479 1408.5666 1351.6334 1408.5625 1351.625 C 1408.4524 1351.4022 1408.3447 1351.2013 1408.25 1350.9688 C 1408.0644 1350.513 1407.8986 1350.0311 1407.7812 1349.5625 C 1407.7788 1349.5526 1407.7837 1349.5412 1407.7812 1349.5312 C 1407.7245 1349.302 1407.6656 1349.0748 1407.625 1348.8438 C 1407.6233 1348.8338 1407.6267 1348.8224 1407.625 1348.8125 C 1407.5018 1348.0992 1407.4728 1347.3709 1407.5 1346.6562 C 1407.5004 1346.6458 1407.4995 1346.6354 1407.5 1346.625 C 1407.5095 1346.3939 1407.5376 1346.1671 1407.5625 1345.9375 C 1407.5636 1345.9272 1407.5613 1345.9165 1407.5625 1345.9062 C 1407.5881 1345.6766 1407.6153 1345.446 1407.6562 1345.2188 C 1407.6581 1345.2089 1407.6544 1345.1974 1407.6562 1345.1875 C 1408.0038 1343.2893 1408.8826 1341.5024 1410.25 1340.0312 L 1486.1562 1258.5 C 1488.03 1256.4891 1490.6279 1255.3082 1493.375 1255.2188 L 1553.1562 1253.1562 C 1571.2724 1232.1321 1588.1971 1210.068 1603.8125 1187.0312 L 1558.75 1188.6875 C 1556.6949 1188.7574 1554.7155 1188.2118 1553.0312 1187.1875 C 1553.0242 1187.1832 1553.0071 1187.1919 1553 1187.1875 C 1552.7959 1187.0626 1552.6013 1186.8888 1552.4062 1186.75 C 1552.3994 1186.7451 1552.3818 1186.7549 1552.375 1186.75 C 1551.7765 1186.3219 1551.2479 1185.8317 1550.75 1185.2812 C 1550.5775 1185.0905 1550.4087 1184.8918 1550.25 1184.6875 C 1549.7876 1184.092 1549.3915 1183.4514 1549.0625 1182.75 C 1548.9528 1182.5162 1548.841 1182.2699 1548.75 1182.0312 C 1548.568 1181.5539 1548.4207 1181.0846 1548.3125 1180.5938 C 1548.2043 1180.1029 1548.1293 1179.5902 1548.0938 1179.0938 C 1548.0582 1178.5973 1548.0578 1178.1191 1548.0938 1177.625 C 1548.2556 1175.4015 1549.1419 1173.2357 1550.6875 1171.5 L 1620.9688 1092.7812 C 1622.7302 1090.8122 1625.1795 1089.5931 1627.8125 1089.375 L 1660.625 1086.7188 C 1671.5149 1063.2684 1681.1549 1039.1411 1689.5 1014.4062 L 1687.6875 1014.4062 C 1684.8195 1014.3998 1682.1573 1013.2162 1680.25 1011.2188 C 1679.8968 1010.8515 1679.5788 1010.4824 1679.2812 1010.0625 C 1679.2764 1010.0557 1679.2861 1010.0381 1679.2812 1010.0312 C 1678.8476 1009.4162 1678.4516 1008.7462 1678.1562 1008.0312 C 1677.9572 1007.5493 1677.8097 1007.0588 1677.6875 1006.5625 C 1677.6262 1006.3145 1677.5737 1006.0625 1677.5312 1005.8125 C 1677.4468 1005.3121 1677.3851 1004.815 1677.375 1004.3125 C 1677.3164 1001.5513 1678.3791 998.80999 1680.4062 996.78125 L 1701.3125 975.875 C 1712.3182 935.91243 1719.952 894.56838 1723.875 852.15625 z M 366.4375 1102.5312 C 376.19297 1122.255 386.81593 1141.4744 398.28125 1160.125 L 435.9375 1161.5312 L 384.5625 1104 L 366.4375 1102.5312 z M 1650.1562 1108.2812 L 1633.5938 1109.625 L 1582.25 1167.1562 L 1617.625 1165.8438 C 1629.3221 1147.2099 1640.177 1128.0103 1650.1562 1108.2812 z M 469.9375 1170.9062 C 470.3102 1172.9752 470.0592 1175.1726 469.125 1177.1562 C 467.36211 1180.8999 463.54129 1183.2161 459.40625 1183.0625 L 411.84375 1181.3125 C 427.10882 1204.301 443.66608 1226.3771 461.40625 1247.4062 L 524.8125 1249.5938 C 527.54858 1249.6914 530.13388 1250.8717 532 1252.875 L 607.90625 1334.4062 C 610.63815 1337.3445 611.41356 1341.5944 609.90625 1345.3125 C 608.39892 1349.0306 604.88171 1351.5437 600.875 1351.75 L 571.8125 1353.2188 C 603.44039 1377.6685 637.16137 1399.5297 672.65625 1418.5 C 674.12475 1418.7893 675.53243 1419.3643 676.75 1420.25 C 676.75 1420.25 677.65614 1420.9014 679.0625 1421.875 C 764.49104 1466.4275 859.95824 1494.2631 961.125 1501.0625 C 961.10514 1500.3797 961.0961 1499.7097 961.09375 1499.0312 C 961.09366 1498.9683 961.09368 1498.9067 961.09375 1498.8438 C 961.09308 1498.2387 961.11194 1497.6325 961.125 1497.0312 C 961.15394 1495.6988 961.21756 1494.3728 961.3125 1493.0625 C 956.17937 1494.6354 950.93416 1495.4436 945.46875 1495.0938 C 852.98791 1489.172 791.60929 1468.3951 720.03125 1405.4062 C 717.56601 1403.2241 716.28914 1399.9968 716.59375 1396.7188 C 716.89272 1393.43 717.2176 1387.8881 717.53125 1380.9688 C 618.58963 1332.3533 533.54288 1259.8379 469.9375 1170.9062 z M 480.09375 1268.6875 C 501.19058 1291.7942 523.76642 1313.5278 547.6875 1333.7188 L 577.6875 1332.2188 L 519.8125 1270.0625 L 480.09375 1268.6875 z M 1534.0625 1274.4688 L 1498.375 1275.6875 L 1440.5 1337.8438 L 1465.3438 1339.0938 C 1489.6364 1319.0672 1512.5989 1297.4706 1534.0625 1274.4688 z M 737.625 1390.4375 C 737.57151 1391.2915 737.52274 1392.3458 737.46875 1393.125 C 804.64938 1451.1713 858.36025 1468.8363 946.8125 1474.5 C 951.99719 1474.832 958.92787 1472.5739 967.96875 1467.5 C 967.97078 1467.4959 967.99797 1467.5041 968 1467.5 C 968.04566 1467.4081 968.07888 1467.3102 968.125 1467.2188 C 968.49618 1466.4825 968.87945 1465.7738 969.28125 1465.0625 C 969.72865 1464.2705 970.20147 1463.5087 970.6875 1462.75 C 971.17046 1461.9961 971.66572 1461.2498 972.1875 1460.5312 C 972.71129 1459.81 973.24889 1459.0894 973.8125 1458.4062 C 973.84529 1458.3664 973.87332 1458.3209 973.90625 1458.2812 C 974.4485 1457.6289 975.01429 1457.0211 975.59375 1456.4062 C 975.97182 1456.0037 976.35569 1455.6046 976.75 1455.2188 C 976.91284 1455.0599 977.0844 1454.9059 977.25 1454.75 C 977.37354 1454.6334 977.4999 1454.5212 977.625 1454.4062 C 978.1636 1453.9124 978.7138 1453.4312 979.28125 1452.9688 C 979.39627 1452.8749 979.50876 1452.78 979.625 1452.6875 C 980.2652 1452.1784 980.91697 1451.6864 981.59375 1451.2188 C 982.17056 1450.8202 982.76793 1450.4494 983.375 1450.0938 C 983.98357 1449.7372 984.61401 1449.4052 985.25 1449.0938 C 985.88735 1448.7817 986.52562 1448.4835 987.1875 1448.2188 C 898.47357 1445.2571 814.18532 1424.9092 737.625 1390.4375 z M 1280.2812 1391.1562 C 1206.2637 1424.252 1125.0676 1444.1795 1039.6562 1447.9688 C 1047.1354 1454.4022 1051.9753 1463.705 1054.6875 1474.125 C 1054.8214 1474.6395 1054.9394 1475.1658 1055.0625 1475.6875 C 1057.5786 1476.9089 1059.9095 1477.876 1062.0625 1478.5938 C 1062.7802 1478.833 1063.4779 1479.0348 1064.1562 1479.2188 C 1065.5129 1479.5867 1066.7976 1479.8511 1068 1480 C 1068.4409 1480.0534 1068.8918 1480.1006 1069.3125 1480.125 C 1069.3531 1480.1274 1069.3971 1480.1229 1069.4375 1480.125 C 1069.6697 1480.1369 1069.899 1480.1532 1070.125 1480.1562 C 1070.2071 1480.1574 1070.2937 1480.1563 1070.375 1480.1562 C 1070.7129 1480.1559 1071.0512 1480.1457 1071.375 1480.125 C 1159.8273 1474.4614 1213.5381 1456.7963 1280.7188 1398.75 C 1280.5662 1396.5483 1280.4297 1393.9318 1280.2812 1391.1562 z M 1004.875 1468.375 C 997.69176 1473.1935 990.9358 1477.7543 984.4375 1481.75 C 984.42375 1481.7898 984.41994 1481.835 984.40625 1481.875 C 984.39866 1481.8972 984.38256 1481.9152 984.375 1481.9375 C 984.22178 1482.3872 984.08049 1482.8442 983.9375 1483.3125 C 983.77787 1483.8407 983.61151 1484.389 983.46875 1484.9375 C 983.21935 1485.8957 983.00777 1486.8717 982.8125 1487.875 C 982.61723 1488.8783 982.4511 1489.8946 982.3125 1490.9375 C 982.21463 1491.6739 982.13103 1492.4336 982.0625 1493.1875 C 982.05703 1493.2492 982.06777 1493.3132 982.0625 1493.375 C 982.00952 1493.9965 981.93884 1494.6179 981.90625 1495.25 C 981.90145 1495.343 981.9106 1495.438 981.90625 1495.5312 C 981.80528 1497.6956 981.82127 1499.9292 981.96875 1502.1875 C 991.17524 1502.5393 1000.4271 1502.7188 1009.7188 1502.7188 C 1018.3723 1502.7188 1027.0132 1502.5552 1035.5938 1502.25 C 1036.3332 1497.6704 1036.5018 1493.1727 1036.2188 1488.9062 C 1036.0203 1488.7878 1035.8238 1488.6509 1035.625 1488.5312 C 1034.6091 1487.9197 1033.5892 1487.2968 1032.5625 1486.6562 C 1031.5018 1485.9945 1030.4493 1485.3149 1029.375 1484.625 C 1029.0396 1484.4096 1028.6806 1484.2179 1028.3438 1484 C 1026.2207 1482.6263 1024.0648 1481.1815 1021.875 1479.7188 C 1020.2153 1478.6102 1018.4874 1477.4614 1016.7812 1476.3125 C 1015.6283 1475.5362 1014.4891 1474.7598 1013.3125 1473.9688 C 1010.61 1472.1519 1007.8481 1470.3076 1005 1468.4375 C 1004.9559 1468.4118 1004.9187 1468.4002 1004.875 1468.375 z M 1056.8438 1498.6875 C 1056.7861 1499.5228 1056.7406 1500.3483 1056.6562 1501.1875 C 1059.6606 1500.9928 1062.6619 1500.7631 1065.6562 1500.5312 C 1064.1579 1500.3672 1062.6918 1500.1259 1061.2188 1499.8125 C 1060.4901 1499.6575 1059.7546 1499.501 1059.0312 1499.3125 C 1058.3305 1499.1299 1057.6338 1498.9308 1056.9375 1498.7188 C 1056.9059 1498.7091 1056.8753 1498.6972 1056.8438 1498.6875 z "
       id="path1358" />
    <rect
       y="791.48761"
       x="1699.6902"
       height="2.5840495"
       width="0.14433604"
       id="rect4153"
       style="fill:#ffffff;fill-opacity:1;stroke:#ffffff;stroke-width:29.77323723;stroke-miterlimit:4;stroke-dasharray:none;stroke-opacity:1" />
    <path
       style="fill:#ffffff;fill-opacity:1;fill-rule:evenodd;stroke:none;stroke-width:24.46635818;stroke-linecap:round;stroke-linejoin:round;stroke-miterlimit:4;stroke-dasharray:none;stroke-opacity:1"
       d="M 847 391.34375 C 845.10857 391.4086 843.25798 391.91136 841.59375 392.8125 C 742.30282 446.38675 678.78995 509.1668 646.0625 572.875 C 613.33505 636.5832 611.89469 701.4121 636.65625 755.8125 C 685.6549 863.46106 833.43033 927.96525 1026.7812 883.5 C 1026.7846 883.88141 1026.7715 884.35096 1026.5938 885.15625 C 1025.7611 888.92427 1021.1959 897.00039 1011.7188 905.75 C 992.76442 923.24921 955.6803 943.9531 902.09375 957.09375 C 808.1438 980.13243 663.16844 980.75949 472.0625 908.28125 L 484.15625 921.09375 C 486.69073 923.76864 487.60772 927.59143 486.5625 931.125 L 480.0625 953.125 C 500.94172 962.48499 522.40401 970.86195 544.28125 978.25 C 545.95342 976.00512 548.4999 974.48908 551.375 974.15625 C 555.37514 973.69314 559.27745 975.59383 561.375 979.03125 L 564.9375 984.90625 C 692.82893 1024.1522 832.2389 1031.3694 946.28125 1013.375 C 1033.5868 999.59933 1106.3855 971.37056 1148.2188 927.96875 C 1169.1353 906.26784 1182.1148 880.21045 1183.5 851.3125 C 1184.6071 828.21592 1178.2704 803.7662 1164.4062 778.46875 C 1208.5571 780.2002 1242.6335 792.75548 1266.75 812.0625 C 1294.6328 834.38478 1309.9171 865.84527 1312.0312 903.25 C 1316.2596 978.05946 1265.3645 1076.8091 1147.0625 1155.2188 C 1141.6449 1158.9055 1140.0802 1166.2107 1143.5312 1171.7812 C 1146.9826 1177.3518 1154.2242 1179.2095 1159.9375 1176 C 1266.8246 1114.0055 1331.0699 1047.1575 1361.375 981.75 C 1391.6801 916.34254 1387.1155 852.24152 1357.3438 800.1875 C 1298.5477 697.38687 1146.1962 640.91878 979.90625 682.5625 C 979.82417 682.41476 979.64099 682.17822 979.59375 682.0625 C 979.32281 681.39883 979.15532 680.81258 979.75 678.875 C 980.93935 674.99985 986.72411 666.94285 998.03125 658.65625 C 1020.6455 642.08304 1063.3403 623.90836 1121.1875 613.4375 C 1236.8819 592.49579 1413.5477 601.17275 1620.7812 701.3125 C 1626.6904 704.03023 1633.6907 701.66266 1636.7188 695.90625 C 1639.7468 690.14987 1637.7438 683.01709 1632.1562 679.6875 C 1378.0585 534.8944 1149.256 522.80861 999.21875 567.53125 C 924.20011 589.89257 868.55802 626.2515 839.53125 669.21875 C 813.89501 707.16713 810.9562 751.78055 835.46875 790.25 C 821.44658 791.62461 801.14676 789.22578 780.40625 780.84375 C 750.74567 768.85678 720.5128 746.46074 703.0625 715.5625 C 685.6122 684.66426 679.89709 645.31396 699.96875 594.90625 C 720.04041 544.49854 766.8007 483.299 855 413.15625 C 859.13468 409.87603 860.69234 404.29882 858.875 399.34375 C 857.05766 394.38869 852.27505 391.17283 847 391.34375 z M 383.125 872.09375 C 379.05142 872.25171 375.17019 874.44656 373 878.1875 C 369.84337 883.62888 371.3331 890.57332 376.4375 894.25 C 385.01692 900.37816 393.80868 906.248 402.78125 911.90625 L 414.53125 884.78125 C 405.98905 881.05453 397.36452 877.20269 388.65625 873.1875 C 386.86702 872.37313 384.97663 872.02195 383.125 872.09375 z M 432.125 896.0625 L 420.59375 922.6875 C 433.77069 930.35176 447.29565 937.55113 461.125 944.28125 L 465.0625 930.9375 L 432.125 896.0625 z "
       id="path9492" />
    <path
       style="fill:#ffd700;fill-opacity:1;fill-rule:evenodd;stroke:none;stroke-width:10;stroke-linecap:butt;stroke-linejoin:miter;stroke-miterlimit:4;stroke-dasharray:none;stroke-opacity:1"
       d="M 278.5625 839.75 L 276.28125 929.65625 L 337.78125 991.15625 C 340.73387 994.11116 341.6008 998.54793 340 1002.4062 C 338.39919 1006.2646 334.646 1008.7845 330.46875 1008.7812 L 283.5625 1008.7812 L 294.40625 1075.9688 L 390.34375 1083.75 C 392.98783 1083.9603 395.44961 1085.1801 397.21875 1087.1562 L 467.5 1165.875 C 470.25235 1168.9648 470.88787 1173.4127 469.125 1177.1562 C 467.36211 1180.8999 463.54129 1183.2161 459.40625 1183.0625 L 326.84375 1178.1875 L 367.3125 1244.1562 L 524.8125 1249.5938 C 527.54858 1249.6914 530.13388 1250.8717 532 1252.875 L 607.90625 1334.4062 C 610.63815 1337.3445 611.41356 1341.5944 609.90625 1345.3125 C 608.39892 1349.0306 604.88171 1351.5437 600.875 1351.75 L 460.28125 1358.7812 L 519.9375 1404.5312 L 671.5625 1418.3125 C 673.43582 1418.474 675.22948 1419.1439 676.75 1420.25 C 676.75 1420.25 809.57053 1516.6673 961.84375 1509.75 C 961.06236 1504.0903 960.92137 1498.4611 961.3125 1493.0625 C 956.17937 1494.6354 950.93416 1495.4437 945.46875 1495.0938 C 852.98791 1489.172 791.60929 1468.395 720.03125 1405.4062 C 717.56601 1403.2241 716.28914 1399.9969 716.59375 1396.7188 C 717.86911 1382.6898 719.3529 1330.6194 720.40625 1283.2188 C 721.42304 1237.4631 722.04709 1198.3095 722.09375 1195.4375 L 684.53125 1138.0938 L 655.5 1295.5312 C 654.80865 1299.2669 652.11685 1302.3065 648.5 1303.4688 C 644.88313 1304.6309 640.92534 1303.7274 638.1875 1301.0938 L 565.09375 1230.8125 C 562.77353 1228.5775 561.62936 1225.3877 562 1222.1875 L 581.25 1051.4375 L 555.40625 1008.9375 L 508.96875 1150.6875 C 507.8475 1154.0977 505.0241 1156.6714 501.53125 1157.5 C 498.03838 1158.3286 494.3773 1157.2932 491.84375 1154.75 L 424.375 1087.2812 C 421.70571 1084.6063 420.71086 1080.6867 421.78125 1077.0625 L 465.0625 930.9375 L 432.125 896.0625 L 393.375 985.6875 C 391.61851 989.73069 387.48842 992.22066 383.09375 991.875 C 378.69908 991.52935 375.00905 988.42432 373.90625 984.15625 L 344.21875 868.15625 L 278.5625 839.75 z M 1004.875 1468.375 C 997.69176 1473.1935 990.9358 1477.7543 984.4375 1481.75 C 984.0867 1482.766 983.75484 1483.8384 983.46875 1484.9375 C 981.6821 1491.8016 981.26309 1499.8953 982.65625 1508.2188 C 985.39281 1508.2099 988.04519 1509.2935 990 1511.25 C 996.54135 1517.7913 1003.7533 1523.6657 1010.25 1527.6875 C 1011.3822 1528.3884 1012.4668 1528.9966 1013.5 1529.5312 C 1018.4041 1525.9524 1023.4704 1521.5922 1028.1875 1516.875 C 1029.3671 1515.6953 1030.793 1514.8389 1032.3438 1514.3438 C 1035.6506 1505.7504 1036.7806 1496.9003 1036.25 1488.9062 C 1026.5376 1483.1085 1016.4014 1475.9237 1005 1468.4375 C 1004.9559 1468.4118 1004.9187 1468.4002 1004.875 1468.375 z "
       id="path5038" />
    <path
       style="color:#000000;fill:#ffd700;fill-opacity:1;fill-rule:evenodd;stroke:none;stroke-width:10;stroke-linecap:butt;stroke-linejoin:miter;marker:none;marker-start:none;marker-mid:none;marker-end:none;stroke-miterlimit:4;stroke-dasharray:none;stroke-dashoffset:0;stroke-opacity:1;visibility:visible;display:inline;overflow:visible"
       d="M 1739.625 845.34375 L 1673.9688 873.78125 L 1644.2812 989.78125 C 1643.1785 994.04929 1639.4884 997.15435 1635.0938 997.5 C 1630.6991 997.84565 1626.569 995.35565 1624.8125 991.3125 L 1586.0312 901.6875 L 1553.0938 936.59375 L 1596.4062 1082.6875 C 1597.4688 1086.3174 1596.4616 1090.2378 1593.7812 1092.9062 L 1526.3125 1160.375 C 1523.7737 1162.9018 1520.1084 1163.9279 1516.625 1163.0938 C 1513.1416 1162.2595 1510.3376 1159.6839 1509.2188 1156.2812 L 1462.7812 1014.5312 L 1436.9062 1057.0625 L 1456.1875 1227.8125 C 1456.5582 1231.0127 1455.414 1234.2025 1453.0938 1236.4375 L 1380 1306.7188 C 1377.2578 1309.3532 1373.2747 1310.2629 1369.6562 1309.0938 C 1366.0378 1307.9245 1363.3697 1304.8659 1362.6875 1301.125 L 1333.625 1143.75 L 1296.0938 1201.0625 C 1296.1403 1203.9345 1296.7645 1243.0882 1297.7812 1288.8438 C 1298.8347 1336.2444 1300.3184 1388.3148 1301.5938 1402.3438 C 1301.8906 1405.6273 1300.6018 1408.8552 1298.125 1411.0312 C 1226.5469 1474.02 1165.1684 1494.7972 1072.6875 1500.7188 C 1060.922 1501.472 1050.176 1496.8984 1039.375 1490.75 C 1028.7131 1484.6807 1017.6252 1476.7273 1005 1468.4375 C 999.35326 1465.1436 996.9351 1465.7374 993.34375 1468.2188 C 989.7524 1470.7 985.6154 1476.6903 983.46875 1484.9375 C 979.47831 1500.2683 982.2538 1521.7145 997 1538.2188 C 999.88705 1537.3967 1003.515 1536.031 1007.9062 1533.3125 C 1014.4031 1529.2907 1021.6463 1523.4163 1028.1875 1516.875 C 1030.3889 1514.6735 1033.466 1513.5827 1036.5625 1513.9062 C 1196.9156 1530.7837 1341.4375 1425.875 1341.4375 1425.875 C 1342.9458 1424.763 1344.7282 1424.0825 1346.5938 1423.9062 L 1498.2188 1410.1562 L 1557.875 1364.4062 L 1417.3125 1357.375 C 1413.3002 1357.18 1409.765 1354.6891 1408.25 1350.9688 C 1406.735 1347.2483 1407.5152 1342.9736 1410.25 1340.0312 L 1486.1562 1258.5 C 1488.03 1256.4891 1490.6279 1255.3082 1493.375 1255.2188 L 1650.8438 1249.7812 L 1691.3125 1183.7812 L 1558.75 1188.6875 C 1554.6206 1188.8279 1550.8172 1186.4907 1549.0625 1182.75 C 1547.3078 1179.0094 1547.9397 1174.5856 1550.6875 1171.5 L 1620.9688 1092.7812 C 1622.7302 1090.8122 1625.1795 1089.5931 1627.8125 1089.375 L 1723.75 1081.5938 L 1734.5938 1014.4062 L 1687.6875 1014.4062 C 1683.5159 1014.3968 1679.7491 1011.8868 1678.1562 1008.0312 C 1676.5635 1004.1756 1677.4576 999.73214 1680.4062 996.78125 L 1741.9062 935.28125 L 1739.625 845.34375 z "
       id="path4310" />
  </g>
</svg>
